<svg id="visual" viewBox="0 0 960 540" width="960" height="540" xmlns="http://www.w3.org/2000/svg" xmlns:xlink="http://www.w3.org/1999/xlink" version="1.1"><rect x="0" y="0" width="960" height="540" fill="#001220"></rect><defs><linearGradient id="grad1_0" x1="43.8%" y1="0%" x2="100%" y2="100%"><stop offset="14.444444444444446%" stop-color="#001220" stop-opacity="1"></stop><stop offset="85.55555555555554%" stop-color="#001220" stop-opacity="1"></stop></linearGradient></defs><defs><linearGradient id="grad2_0" x1="0%" y1="0%" x2="56.3%" y2="100%"><stop offset="14.444444444444446%" stop-color="#001220" stop-opacity="1"></stop><stop offset="85.55555555555554%" stop-color="#001220" stop-opacity="1"></stop></linearGradient></defs><g transform="translate(960, 0)"><path d="M0 486C-58.1 466.9 -116.2 447.9 -177.2 427.8C-238.2 407.6 -302.2 386.4 -343.7 343.7C-385.1 300.9 -404.1 236.5 -424.1 175.7C-444 114.8 -465 57.4 -486 0L0 0Z" fill="#FBAE3C"></path></g><g transform="translate(0, 540)"><path d="M0 -486C44 -434.9 88 -383.7 152.7 -368.6C217.4 -353.5 302.8 -374.4 343.7 -343.7C384.5 -312.9 381 -230.4 397.3 -164.6C413.6 -98.7 449.8 -49.3 486 0L0 0Z" fill="#FBAE3C"></path></g></svg>