<svg id="visual" viewBox="0 0 960 540" width="960" height="540" xmlns="http://www.w3.org/2000/svg" xmlns:xlink="http://www.w3.org/1999/xlink" version="1.1"><rect x="0" y="0" width="960" height="540" fill="#001220"></rect><defs><linearGradient id="grad1_0" x1="43.8%" y1="0%" x2="100%" y2="100%"><stop offset="14.444444444444446%" stop-color="#fbae3c" stop-opacity="1"></stop><stop offset="85.55555555555554%" stop-color="#fbae3c" stop-opacity="1"></stop></linearGradient></defs><defs><linearGradient id="grad1_1" x1="43.8%" y1="0%" x2="100%" y2="100%"><stop offset="14.444444444444446%" stop-color="#fbae3c" stop-opacity="1"></stop><stop offset="85.55555555555554%" stop-color="#f48350" stop-opacity="1"></stop></linearGradient></defs><defs><linearGradient id="grad1_2" x1="43.8%" y1="0%" x2="100%" y2="100%"><stop offset="14.444444444444446%" stop-color="#d96162" stop-opacity="1"></stop><stop offset="85.55555555555554%" stop-color="#f48350" stop-opacity="1"></stop></linearGradient></defs><defs><linearGradient id="grad1_3" x1="43.8%" y1="0%" x2="100%" y2="100%"><stop offset="14.444444444444446%" stop-color="#d96162" stop-opacity="1"></stop><stop offset="85.55555555555554%" stop-color="#af4b6d" stop-opacity="1"></stop></linearGradient></defs><defs><linearGradient id="grad1_4" x1="43.8%" y1="0%" x2="100%" y2="100%"><stop offset="14.444444444444446%" stop-color="#7c3e6b" stop-opacity="1"></stop><stop offset="85.55555555555554%" stop-color="#af4b6d" stop-opacity="1"></stop></linearGradient></defs><defs><linearGradient id="grad1_5" x1="43.8%" y1="0%" x2="100%" y2="100%"><stop offset="14.444444444444446%" stop-color="#7c3e6b" stop-opacity="1"></stop><stop offset="85.55555555555554%" stop-color="#49335c" stop-opacity="1"></stop></linearGradient></defs><defs><linearGradient id="grad1_6" x1="43.8%" y1="0%" x2="100%" y2="100%"><stop offset="14.444444444444446%" stop-color="#1d2540" stop-opacity="1"></stop><stop offset="85.55555555555554%" stop-color="#49335c" stop-opacity="1"></stop></linearGradient></defs><defs><linearGradient id="grad1_7" x1="43.8%" y1="0%" x2="100%" y2="100%"><stop offset="14.444444444444446%" stop-color="#1d2540" stop-opacity="1"></stop><stop offset="85.55555555555554%" stop-color="#001220" stop-opacity="1"></stop></linearGradient></defs><defs><linearGradient id="grad2_0" x1="0%" y1="0%" x2="56.3%" y2="100%"><stop offset="14.444444444444446%" stop-color="#fbae3c" stop-opacity="1"></stop><stop offset="85.55555555555554%" stop-color="#fbae3c" stop-opacity="1"></stop></linearGradient></defs><defs><linearGradient id="grad2_1" x1="0%" y1="0%" x2="56.3%" y2="100%"><stop offset="14.444444444444446%" stop-color="#f48350" stop-opacity="1"></stop><stop offset="85.55555555555554%" stop-color="#fbae3c" stop-opacity="1"></stop></linearGradient></defs><defs><linearGradient id="grad2_2" x1="0%" y1="0%" x2="56.3%" y2="100%"><stop offset="14.444444444444446%" stop-color="#f48350" stop-opacity="1"></stop><stop offset="85.55555555555554%" stop-color="#d96162" stop-opacity="1"></stop></linearGradient></defs><defs><linearGradient id="grad2_3" x1="0%" y1="0%" x2="56.3%" y2="100%"><stop offset="14.444444444444446%" stop-color="#af4b6d" stop-opacity="1"></stop><stop offset="85.55555555555554%" stop-color="#d96162" stop-opacity="1"></stop></linearGradient></defs><defs><linearGradient id="grad2_4" x1="0%" y1="0%" x2="56.3%" y2="100%"><stop offset="14.444444444444446%" stop-color="#af4b6d" stop-opacity="1"></stop><stop offset="85.55555555555554%" stop-color="#7c3e6b" stop-opacity="1"></stop></linearGradient></defs><defs><linearGradient id="grad2_5" x1="0%" y1="0%" x2="56.3%" y2="100%"><stop offset="14.444444444444446%" stop-color="#49335c" stop-opacity="1"></stop><stop offset="85.55555555555554%" stop-color="#7c3e6b" stop-opacity="1"></stop></linearGradient></defs><defs><linearGradient id="grad2_6" x1="0%" y1="0%" x2="56.3%" y2="100%"><stop offset="14.444444444444446%" stop-color="#49335c" stop-opacity="1"></stop><stop offset="85.55555555555554%" stop-color="#1d2540" stop-opacity="1"></stop></linearGradient></defs><defs><linearGradient id="grad2_7" x1="0%" y1="0%" x2="56.3%" y2="100%"><stop offset="14.444444444444446%" stop-color="#001220" stop-opacity="1"></stop><stop offset="85.55555555555554%" stop-color="#1d2540" stop-opacity="1"></stop></linearGradient></defs><g transform="translate(960, 0)"><path d="M0 351C-35 321.5 -70.1 292 -116 279.9C-161.8 267.9 -218.6 273.2 -248.2 248.2C-277.8 223.2 -280.3 167.7 -292.9 121.3C-305.5 74.9 -328.2 37.4 -351 0L0 0Z" fill="#0c1c30"></path><path d="M0 307.1C-30.7 281.3 -61.3 255.5 -101.5 244.9C-141.6 234.4 -191.3 239.1 -217.2 217.2C-243.1 195.3 -245.2 146.8 -256.3 106.1C-267.3 65.5 -287.2 32.8 -307.1 0L0 0Z" fill="#312c4f"></path><path d="M0 263.3C-26.3 241.1 -52.5 219 -87 210C-121.4 200.9 -163.9 204.9 -186.1 186.1C-208.3 167.4 -210.2 125.8 -219.7 91C-229.1 56.2 -246.2 28.1 -263.2 0L0 0Z" fill="#623965"></path><path d="M0 219.4C-21.9 200.9 -43.8 182.5 -72.5 175C-101.2 167.4 -136.6 170.8 -155.1 155.1C-173.6 139.5 -175.2 104.8 -183 75.8C-190.9 46.8 -205.2 23.4 -219.4 0L0 0Z" fill="#96446e"></path><path d="M0 175.5C-17.5 160.8 -35 146 -58 140C-80.9 133.9 -109.3 136.6 -124.1 124.1C-138.9 111.6 -140.1 83.9 -146.4 60.7C-152.7 37.4 -164.1 18.7 -175.5 0L0 0Z" fill="#c55469"></path><path d="M0 131.6C-13.1 120.6 -26.3 109.5 -43.5 105C-60.7 100.4 -82 102.5 -93.1 93.1C-104.2 83.7 -105.1 62.9 -109.8 45.5C-114.6 28.1 -123.1 14 -131.6 0L0 0Z" fill="#e9705a"></path><path d="M0 87.8C-8.8 80.4 -17.5 73 -29 70C-40.5 67 -54.6 68.3 -62 62C-69.4 55.8 -70.1 41.9 -73.2 30.3C-76.4 18.7 -82.1 9.4 -87.7 0L0 0Z" fill="#fa9845"></path><path d="M0 43.9C-4.4 40.2 -8.8 36.5 -14.5 35C-20.2 33.5 -27.3 34.2 -31 31C-34.7 27.9 -35 21 -36.6 15.2C-38.2 9.4 -41 4.7 -43.9 0L0 0Z" fill="#fbae3c"></path></g><g transform="translate(0, 540)"><path d="M0 -351C33.9 -317.4 67.9 -283.7 112.5 -271.6C157.1 -259.5 212.4 -268.9 248.2 -248.2C284 -227.4 300.2 -176.5 314.1 -130.1C328 -83.7 339.5 -41.9 351 0L0 0Z" fill="#0c1c30"></path><path d="M0 -307.1C29.7 -277.7 59.4 -248.3 98.4 -237.7C137.5 -227.1 185.9 -235.3 217.2 -217.2C248.5 -199 262.7 -154.4 274.9 -113.8C287 -73.3 297.1 -36.6 307.1 0L0 0Z" fill="#312c4f"></path><path d="M0 -263.2C25.5 -238 50.9 -212.8 84.4 -203.7C117.8 -194.6 159.3 -201.7 186.1 -186.1C213 -170.6 225.2 -132.4 235.6 -97.6C246 -62.8 254.6 -31.4 263.3 0L0 0Z" fill="#623965"></path><path d="M0 -219.4C21.2 -198.4 42.4 -177.3 70.3 -169.8C98.2 -162.2 132.8 -168.1 155.1 -155.1C177.5 -142.2 187.6 -110.3 196.3 -81.3C205 -52.3 212.2 -26.2 219.4 0L0 0Z" fill="#96446e"></path><path d="M0 -175.5C17 -158.7 33.9 -141.9 56.3 -135.8C78.6 -129.8 106.2 -134.5 124.1 -124.1C142 -113.7 150.1 -88.3 157.1 -65.1C164 -41.9 169.8 -20.9 175.5 0L0 0Z" fill="#c55469"></path><path d="M0 -131.6C12.7 -119 25.5 -106.4 42.2 -101.9C58.9 -97.3 79.7 -100.9 93.1 -93.1C106.5 -85.3 112.6 -66.2 117.8 -48.8C123 -31.4 127.3 -15.7 131.6 0L0 0Z" fill="#e9705a"></path><path d="M0 -87.7C8.5 -79.3 17 -70.9 28.1 -67.9C39.3 -64.9 53.1 -67.2 62 -62C71 -56.9 75.1 -44.1 78.5 -32.5C82 -20.9 84.9 -10.5 87.8 0L0 0Z" fill="#fa9845"></path><path d="M0 -43.9C4.2 -39.7 8.5 -35.5 14.1 -34C19.6 -32.4 26.6 -33.6 31 -31C35.5 -28.4 37.5 -22.1 39.3 -16.3C41 -10.5 42.4 -5.2 43.9 0L0 0Z" fill="#fbae3c"></path></g></svg>