<svg id="visual" viewBox="0 0 960 540" width="960" height="540" xmlns="http://www.w3.org/2000/svg" xmlns:xlink="http://www.w3.org/1999/xlink" version="1.1"><rect x="0" y="0" width="960" height="540" fill="#001220"></rect><defs><linearGradient id="grad1_0" x1="43.8%" y1="0%" x2="100%" y2="100%"><stop offset="14.444444444444446%" stop-color="#fbae3c" stop-opacity="1"></stop><stop offset="85.55555555555554%" stop-color="#fbae3c" stop-opacity="1"></stop></linearGradient></defs><defs><linearGradient id="grad1_1" x1="43.8%" y1="0%" x2="100%" y2="100%"><stop offset="14.444444444444446%" stop-color="#fbae3c" stop-opacity="1"></stop><stop offset="85.55555555555554%" stop-color="#f48350" stop-opacity="1"></stop></linearGradient></defs><defs><linearGradient id="grad1_2" x1="43.8%" y1="0%" x2="100%" y2="100%"><stop offset="14.444444444444446%" stop-color="#d96162" stop-opacity="1"></stop><stop offset="85.55555555555554%" stop-color="#f48350" stop-opacity="1"></stop></linearGradient></defs><defs><linearGradient id="grad1_3" x1="43.8%" y1="0%" x2="100%" y2="100%"><stop offset="14.444444444444446%" stop-color="#d96162" stop-opacity="1"></stop><stop offset="85.55555555555554%" stop-color="#af4b6d" stop-opacity="1"></stop></linearGradient></defs><defs><linearGradient id="grad1_4" x1="43.8%" y1="0%" x2="100%" y2="100%"><stop offset="14.444444444444446%" stop-color="#7c3e6b" stop-opacity="1"></stop><stop offset="85.55555555555554%" stop-color="#af4b6d" stop-opacity="1"></stop></linearGradient></defs><defs><linearGradient id="grad1_5" x1="43.8%" y1="0%" x2="100%" y2="100%"><stop offset="14.444444444444446%" stop-color="#7c3e6b" stop-opacity="1"></stop><stop offset="85.55555555555554%" stop-color="#49335c" stop-opacity="1"></stop></linearGradient></defs><defs><linearGradient id="grad1_6" x1="43.8%" y1="0%" x2="100%" y2="100%"><stop offset="14.444444444444446%" stop-color="#1d2540" stop-opacity="1"></stop><stop offset="85.55555555555554%" stop-color="#49335c" stop-opacity="1"></stop></linearGradient></defs><defs><linearGradient id="grad1_7" x1="43.8%" y1="0%" x2="100%" y2="100%"><stop offset="14.444444444444446%" stop-color="#1d2540" stop-opacity="1"></stop><stop offset="85.55555555555554%" stop-color="#001220" stop-opacity="1"></stop></linearGradient></defs><defs><linearGradient id="grad2_0" x1="0%" y1="0%" x2="56.3%" y2="100%"><stop offset="14.444444444444446%" stop-color="#fbae3c" stop-opacity="1"></stop><stop offset="85.55555555555554%" stop-color="#fbae3c" stop-opacity="1"></stop></linearGradient></defs><defs><linearGradient id="grad2_1" x1="0%" y1="0%" x2="56.3%" y2="100%"><stop offset="14.444444444444446%" stop-color="#f48350" stop-opacity="1"></stop><stop offset="85.55555555555554%" stop-color="#fbae3c" stop-opacity="1"></stop></linearGradient></defs><defs><linearGradient id="grad2_2" x1="0%" y1="0%" x2="56.3%" y2="100%"><stop offset="14.444444444444446%" stop-color="#f48350" stop-opacity="1"></stop><stop offset="85.55555555555554%" stop-color="#d96162" stop-opacity="1"></stop></linearGradient></defs><defs><linearGradient id="grad2_3" x1="0%" y1="0%" x2="56.3%" y2="100%"><stop offset="14.444444444444446%" stop-color="#af4b6d" stop-opacity="1"></stop><stop offset="85.55555555555554%" stop-color="#d96162" stop-opacity="1"></stop></linearGradient></defs><defs><linearGradient id="grad2_4" x1="0%" y1="0%" x2="56.3%" y2="100%"><stop offset="14.444444444444446%" stop-color="#af4b6d" stop-opacity="1"></stop><stop offset="85.55555555555554%" stop-color="#7c3e6b" stop-opacity="1"></stop></linearGradient></defs><defs><linearGradient id="grad2_5" x1="0%" y1="0%" x2="56.3%" y2="100%"><stop offset="14.444444444444446%" stop-color="#49335c" stop-opacity="1"></stop><stop offset="85.55555555555554%" stop-color="#7c3e6b" stop-opacity="1"></stop></linearGradient></defs><defs><linearGradient id="grad2_6" x1="0%" y1="0%" x2="56.3%" y2="100%"><stop offset="14.444444444444446%" stop-color="#49335c" stop-opacity="1"></stop><stop offset="85.55555555555554%" stop-color="#1d2540" stop-opacity="1"></stop></linearGradient></defs><defs><linearGradient id="grad2_7" x1="0%" y1="0%" x2="56.3%" y2="100%"><stop offset="14.444444444444446%" stop-color="#001220" stop-opacity="1"></stop><stop offset="85.55555555555554%" stop-color="#1d2540" stop-opacity="1"></stop></linearGradient></defs><g transform="translate(960, 0)"><path d="M0 351C-35.4 343.7 -70.8 336.4 -106.3 327.2C-141.8 317.9 -177.3 306.6 -206.3 284C-235.3 261.3 -257.8 227.2 -264.5 192.2C-271.2 157.2 -262.1 121.2 -273.9 89C-285.7 56.8 -318.3 28.4 -351 0L0 0Z" fill="#0c1c30"></path><path d="M0 307.1C-31 300.8 -62 294.4 -93 286.3C-124 278.2 -155.1 268.3 -180.5 248.5C-205.9 228.6 -225.6 198.8 -231.5 168.2C-237.3 137.5 -229.4 106 -239.7 77.9C-250 49.7 -278.5 24.9 -307.1 0L0 0Z" fill="#312c4f"></path><path d="M0 263.3C-26.6 257.8 -53.1 252.3 -79.7 245.4C-106.3 238.4 -133 230 -154.7 213C-176.5 196 -193.4 170.4 -198.4 144.2C-203.4 117.9 -196.6 90.9 -205.4 66.7C-214.3 42.6 -238.8 21.3 -263.2 0L0 0Z" fill="#623965"></path><path d="M0 219.4C-22.1 214.8 -44.3 210.3 -66.4 204.5C-88.6 198.7 -110.8 191.6 -128.9 177.5C-147.1 163.3 -161.2 142 -165.3 120.1C-169.5 98.2 -163.8 75.7 -171.2 55.6C-178.5 35.5 -199 17.8 -219.4 0L0 0Z" fill="#96446e"></path><path d="M0 175.5C-17.7 171.9 -35.4 168.2 -53.2 163.6C-70.9 158.9 -88.6 153.3 -103.2 142C-117.7 130.7 -128.9 113.6 -132.3 96.1C-135.6 78.6 -131.1 60.6 -137 44.5C-142.8 28.4 -159.2 14.2 -175.5 0L0 0Z" fill="#c55469"></path><path d="M0 131.6C-13.3 128.9 -26.6 126.2 -39.9 122.7C-53.2 119.2 -66.5 115 -77.4 106.5C-88.2 98 -96.7 85.2 -99.2 72.1C-101.7 58.9 -98.3 45.4 -102.7 33.4C-107.1 21.3 -119.4 10.7 -131.6 0L0 0Z" fill="#e9705a"></path><path d="M0 87.8C-8.9 85.9 -17.7 84.1 -26.6 81.8C-35.4 79.5 -44.3 76.7 -51.6 71C-58.8 65.3 -64.5 56.8 -66.1 48.1C-67.8 39.3 -65.5 30.3 -68.5 22.2C-71.4 14.2 -79.6 7.1 -87.7 0L0 0Z" fill="#fa9845"></path><path d="M0 43.9C-4.4 43 -8.9 42.1 -13.3 40.9C-17.7 39.7 -22.2 38.3 -25.8 35.5C-29.4 32.7 -32.2 28.4 -33.1 24C-33.9 19.6 -32.8 15.1 -34.2 11.1C-35.7 7.1 -39.8 3.6 -43.9 0L0 0Z" fill="#fbae3c"></path></g><g transform="translate(0, 540)"><path d="M0 -351C28.2 -323.5 56.4 -295.9 93.3 -287.2C130.2 -278.5 175.8 -288.7 194.6 -267.8C213.3 -246.9 205.2 -195 229 -166.3C252.7 -137.7 308.2 -132.3 333.8 -108.5C359.5 -84.6 355.2 -42.3 351 0L0 0Z" fill="#0c1c30"></path><path d="M0 -307.1C24.7 -283 49.4 -258.9 81.7 -251.3C113.9 -243.7 153.8 -252.6 170.2 -234.3C186.6 -216 179.6 -170.6 200.3 -145.6C221.1 -120.5 269.7 -115.8 292.1 -94.9C314.5 -74 310.8 -37 307.1 0L0 0Z" fill="#312c4f"></path><path d="M0 -263.2C21.2 -242.6 42.3 -221.9 70 -215.4C97.7 -208.9 131.9 -216.5 145.9 -200.8C160 -185.2 153.9 -146.2 171.7 -124.8C189.5 -103.3 231.1 -99.2 250.4 -81.3C269.6 -63.5 266.4 -31.7 263.3 0L0 0Z" fill="#623965"></path><path d="M0 -219.4C17.6 -202.2 35.3 -184.9 58.3 -179.5C81.4 -174.1 109.9 -180.4 121.6 -167.4C133.3 -154.3 128.3 -121.9 143.1 -104C157.9 -86.1 192.6 -82.7 208.6 -67.8C224.7 -52.9 222 -26.4 219.4 0L0 0Z" fill="#96446e"></path><path d="M0 -175.5C14.1 -161.7 28.2 -148 46.7 -143.6C65.1 -139.3 87.9 -144.3 97.3 -133.9C106.7 -123.5 102.6 -97.5 114.5 -83.2C126.3 -68.8 154.1 -66.2 166.9 -54.2C179.7 -42.3 177.6 -21.2 175.5 0L0 0Z" fill="#c55469"></path><path d="M0 -131.6C10.6 -121.3 21.2 -111 35 -107.7C48.8 -104.4 65.9 -108.3 73 -100.4C80 -92.6 77 -73.1 85.9 -62.4C94.8 -51.6 115.6 -49.6 125.2 -40.7C134.8 -31.7 133.2 -15.9 131.6 0L0 0Z" fill="#e9705a"></path><path d="M0 -87.7C7.1 -80.9 14.1 -74 23.3 -71.8C32.6 -69.6 44 -72.2 48.6 -66.9C53.3 -61.7 51.3 -48.7 57.2 -41.6C63.2 -34.4 77 -33.1 83.5 -27.1C89.9 -21.2 88.8 -10.6 87.8 0L0 0Z" fill="#fa9845"></path><path d="M0 -43.9C3.5 -40.4 7.1 -37 11.7 -35.9C16.3 -34.8 22 -36.1 24.3 -33.5C26.7 -30.9 25.7 -24.4 28.6 -20.8C31.6 -17.2 38.5 -16.5 41.7 -13.6C44.9 -10.6 44.4 -5.3 43.9 0L0 0Z" fill="#fbae3c"></path></g></svg>