<svg id="visual" viewBox="0 0 960 540" width="960" height="540" xmlns="http://www.w3.org/2000/svg" xmlns:xlink="http://www.w3.org/1999/xlink" version="1.1"><rect x="0" y="0" width="960" height="540" fill="#001220"></rect><path d="M0 337L22.8 356.5C45.7 376 91.3 415 137 437.2C182.7 459.3 228.3 464.7 274 451C319.7 437.3 365.3 404.7 411.2 403.3C457 402 503 432 548.8 431.2C594.7 430.3 640.3 398.7 686 395.3C731.7 392 777.3 417 823 426C868.7 435 914.3 428 937.2 424.5L960 421L960 541L937.2 541C914.3 541 868.7 541 823 541C777.3 541 731.7 541 686 541C640.3 541 594.7 541 548.8 541C503 541 457 541 411.2 541C365.3 541 319.7 541 274 541C228.3 541 182.7 541 137 541C91.3 541 45.7 541 22.8 541L0 541Z" fill="#5c45f1"></path></svg>