<svg id="visual" viewBox="0 0 960 540" width="960" height="540" xmlns="http://www.w3.org/2000/svg" xmlns:xlink="http://www.w3.org/1999/xlink" version="1.1"><rect x="0" y="0" width="960" height="540" fill="#000000"></rect><path d="M0 377L32 389.2C64 401.3 128 425.7 192 425.7C256 425.7 320 401.3 384 385.7C448 370 512 363 576 383.2C640 403.3 704 450.7 768 457.7C832 464.7 896 431.3 928 414.7L960 398L960 541L928 541C896 541 832 541 768 541C704 541 640 541 576 541C512 541 448 541 384 541C320 541 256 541 192 541C128 541 64 541 32 541L0 541Z" fill="#ffb900"></path></svg>