<svg id="visual" viewBox="0 0 960 540" width="960" height="540" xmlns="http://www.w3.org/2000/svg" xmlns:xlink="http://www.w3.org/1999/xlink" version="1.1"><rect x="0" y="0" width="960" height="540" fill="#001220"></rect><path d="M0 108L22.8 115.3C45.7 122.7 91.3 137.3 137 148.7C182.7 160 228.3 168 274 159.7C319.7 151.3 365.3 126.7 411.2 110.2C457 93.7 503 85.3 548.8 84.3C594.7 83.3 640.3 89.7 686 98.8C731.7 108 777.3 120 823 128.2C868.7 136.3 914.3 140.7 937.2 142.8L960 145L960 0L937.2 0C914.3 0 868.7 0 823 0C777.3 0 731.7 0 686 0C640.3 0 594.7 0 548.8 0C503 0 457 0 411.2 0C365.3 0 319.7 0 274 0C228.3 0 182.7 0 137 0C91.3 0 45.7 0 22.8 0L0 0Z" fill="#5c45f1"></path></svg>