<svg id="visual" viewBox="0 0 960 540" width="960" height="540" xmlns="http://www.w3.org/2000/svg" xmlns:xlink="http://www.w3.org/1999/xlink" version="1.1"><rect x="0" y="0" width="960" height="540" fill="#001220"></rect><path d="M0 334L22.8 340C45.7 346 91.3 358 137 369.3C182.7 380.7 228.3 391.3 274 394.2C319.7 397 365.3 392 411.2 384.3C457 376.7 503 366.3 548.8 357.3C594.7 348.3 640.3 340.7 686 348C731.7 355.3 777.3 377.7 823 375.5C868.7 373.3 914.3 346.7 937.2 333.3L960 320L960 541L937.2 541C914.3 541 868.7 541 823 541C777.3 541 731.7 541 686 541C640.3 541 594.7 541 548.8 541C503 541 457 541 411.2 541C365.3 541 319.7 541 274 541C228.3 541 182.7 541 137 541C91.3 541 45.7 541 22.8 541L0 541Z" fill="#5c45f1"></path><path d="M0 409L22.8 404.2C45.7 399.3 91.3 389.7 137 387.3C182.7 385 228.3 390 274 393.5C319.7 397 365.3 399 411.2 400.5C457 402 503 403 548.8 406.5C594.7 410 640.3 416 686 418.2C731.7 420.3 777.3 418.7 823 417.3C868.7 416 914.3 415 937.2 414.5L960 414L960 541L937.2 541C914.3 541 868.7 541 823 541C777.3 541 731.7 541 686 541C640.3 541 594.7 541 548.8 541C503 541 457 541 411.2 541C365.3 541 319.7 541 274 541C228.3 541 182.7 541 137 541C91.3 541 45.7 541 22.8 541L0 541Z" fill="#8a46f3"></path><path d="M0 437L22.8 439.3C45.7 441.7 91.3 446.3 137 449.8C182.7 453.3 228.3 455.7 274 447.7C319.7 439.7 365.3 421.3 411.2 417.2C457 413 503 423 548.8 430C594.7 437 640.3 441 686 435.5C731.7 430 777.3 415 823 410.7C868.7 406.3 914.3 412.7 937.2 415.8L960 419L960 541L937.2 541C914.3 541 868.7 541 823 541C777.3 541 731.7 541 686 541C640.3 541 594.7 541 548.8 541C503 541 457 541 411.2 541C365.3 541 319.7 541 274 541C228.3 541 182.7 541 137 541C91.3 541 45.7 541 22.8 541L0 541Z" fill="#ae48f5"></path><path d="M0 447L22.8 449.5C45.7 452 91.3 457 137 456.8C182.7 456.7 228.3 451.3 274 455.3C319.7 459.3 365.3 472.7 411.2 479.5C457 486.3 503 486.7 548.8 482.7C594.7 478.7 640.3 470.3 686 468.7C731.7 467 777.3 472 823 468.5C868.7 465 914.3 453 937.2 447L960 441L960 541L937.2 541C914.3 541 868.7 541 823 541C777.3 541 731.7 541 686 541C640.3 541 594.7 541 548.8 541C503 541 457 541 411.2 541C365.3 541 319.7 541 274 541C228.3 541 182.7 541 137 541C91.3 541 45.7 541 22.8 541L0 541Z" fill="#ce4bf6"></path><path d="M0 498L22.8 495.8C45.7 493.7 91.3 489.3 137 489.3C182.7 489.3 228.3 493.7 274 495.7C319.7 497.7 365.3 497.3 411.2 495.2C457 493 503 489 548.8 485.5C594.7 482 640.3 479 686 478.8C731.7 478.7 777.3 481.3 823 481.2C868.7 481 914.3 478 937.2 476.5L960 475L960 541L937.2 541C914.3 541 868.7 541 823 541C777.3 541 731.7 541 686 541C640.3 541 594.7 541 548.8 541C503 541 457 541 411.2 541C365.3 541 319.7 541 274 541C228.3 541 182.7 541 137 541C91.3 541 45.7 541 22.8 541L0 541Z" fill="#ec4ff6"></path></svg>