<svg id="visual" viewBox="0 0 960 540" width="960" height="540" xmlns="http://www.w3.org/2000/svg" xmlns:xlink="http://www.w3.org/1999/xlink" version="1.1"><path d="M0 335L22.8 336.5C45.7 338 91.3 341 137 359C182.7 377 228.3 410 274 423.7C319.7 437.3 365.3 431.7 411.2 413C457 394.3 503 362.7 548.8 364C594.7 365.3 640.3 399.7 686 401.3C731.7 403 777.3 372 823 367.2C868.7 362.3 914.3 383.7 937.2 394.3L960 405L960 541L937.2 541C914.3 541 868.7 541 823 541C777.3 541 731.7 541 686 541C640.3 541 594.7 541 548.8 541C503 541 457 541 411.2 541C365.3 541 319.7 541 274 541C228.3 541 182.7 541 137 541C91.3 541 45.7 541 22.8 541L0 541Z" fill="#171717" stroke-linecap="round" stroke-linejoin="miter"></path></svg>